<?xml version="1.0" encoding="utf-8"?>
<!-- Generator: Adobe Illustrator 27.1.1, SVG Export Plug-In . SVG Version: 6.00 Build 0)  -->
<svg version="1.0" id="Capa_1" xmlns="http://www.w3.org/2000/svg" xmlns:xlink="http://www.w3.org/1999/xlink" x="0px" y="0px"
	 viewBox="0 0 48 48" enable-background="new 0 0 48 48" xml:space="preserve">
<g id="Icons">
	<g id="Icons_20_">
		<g>
			<g>
				<path class="linkedin" d="M25.2,22.2c0-0.5,0-1,0-1.5c0-0.2-0.1-0.3-0.3-0.3c-1.2,0-2.5,0-3.7,0c-0.2,0-0.3,0.1-0.3,0.3
					c0,4.5,0,9.1,0,13.6c0,0.2,0.1,0.3,0.3,0.3c1.3,0,2.6,0,3.9,0c0.2,0,0.3-0.1,0.3-0.3c0-2.1,0-4.3,0-6.4c0-0.5,0-1.1,0.1-1.6
					c0.1-0.6,0.3-1.1,0.7-1.6c0.5-0.6,1.2-0.7,1.9-0.7c1,0,1.6,0.5,1.9,1.5c0.2,0.6,0.2,1.3,0.2,1.9c0,2.3,0,4.6,0,6.9
					c0,0.3,0,0.3,0.3,0.3c1.3,0,2.5,0,3.8,0c0.4,0,0.4,0,0.4-0.4c0-2.8,0-5.5,0-8.3c0-0.8-0.1-1.7-0.4-2.5c-0.4-1.3-1-2.3-2.3-2.8
					c-1.3-0.6-2.6-0.7-4-0.3C26.8,20.5,25.8,21.2,25.2,22.2z M18.2,27.5c0-2.3,0-4.5,0-6.8c0-0.2-0.1-0.3-0.3-0.3
					c-1.3,0-2.6,0-3.8,0c-0.2,0-0.3,0.1-0.3,0.3c0,4.5,0,9,0,13.5c0,0.2,0.1,0.3,0.3,0.3c1.3,0,2.6,0,3.8,0c0.2,0,0.3-0.1,0.3-0.3
					C18.2,32,18.2,29.8,18.2,27.5z M13.4,16c0,1.4,1.2,2.6,2.6,2.6c1.5,0,2.6-1.1,2.6-2.6c0-1.5-1.2-2.6-2.6-2.6
					C14.4,13.4,13.4,14.7,13.4,16z"/>
			</g>
		</g>
	</g>
</g>
</svg>
